# xmcd
#
# Track frame offsets:
# 150
# 13822
# 26127
# 37367
# 52037
# 66007
# 77845
# 93720
# 108395
# 120602
# 138252
# 149687
# 163345
# 176360
# 194055
# 209817
# 221085
# 234630
# 248287
# 260337
#
# Disc length: 3655 seconds
#
# Revision: 3
# Processed by: cddbd v1.5.1PL0 Copyright (c) Steve Scherf et al.
# Submitted via: Axialis_AX_CDPlayer 2.6
#
DISCID=3b0e4514
DTITLE=The Delta Line Dance Band - Boot Scootin' Boogie
DYEAR=1997
DGENRE=country
TTITLE0=Boot Scootin' Boogie
TTITLE1=Mercury Blues
TTITLE2=My Baby Loves Me
TTITLE3=Achy Breaky Heart
TTITLE4=Love's Gonna Hold On You
TTITLE5=Hillbilly Rock, Hillbilly Roll
TTITLE6=Black Coffee
TTITLE7=One Step Forward
TTITLE8=Dream Baby
TTITLE9=He Thinks He'll Keep Her
TTITLE10=Cherokee Boogie
TTITLE11=Guitars And Cadillacs
TTITLE12=Ancient History
TTITLE13=Elvira
TTITLE14=The Bug
TTITLE15=When Will I Be Loved
TTITLE16=Passionate Kisses
TTITLE17=Honky Tonk Blues
TTITLE18=Wild One
TTITLE19=One More Last Chance
EXTD=
EXTT0=
EXTT1=
EXTT2=
EXTT3=
EXTT4=
EXTT5=
EXTT6=
EXTT7=
EXTT8=
EXTT9=
EXTT10=
EXTT11=
EXTT12=
EXTT13=
EXTT14=
EXTT15=
EXTT16=
EXTT17=
EXTT18=
EXTT19=
PLAYORDER=
